<?xml version="1.0" standalone="no"?>
<!DOCTYPE svg PUBLIC "-//W3C//DTD SVG 20010904//EN"
 "http://www.w3.org/TR/2001/REC-SVG-20010904/DTD/svg10.dtd">
<svg version="1.0" xmlns="http://www.w3.org/2000/svg"
 width="500.000000pt" height="500.000000pt" viewBox="0 0 500.000000 500.000000"
 preserveAspectRatio="xMidYMid meet">
<metadata>
Created by potrace 1.11, written by Peter Selinger 2001-2013
</metadata>
<g transform="translate(0.000000,500.000000) scale(0.100000,-0.100000)"
fill="#000000" stroke="none">
<path d="M2328 4956 c-1 -2 -39 -6 -83 -10 -44 -4 -98 -11 -120 -16 -22 -5
-57 -11 -77 -14 -21 -3 -57 -11 -80 -16 -24 -6 -54 -13 -68 -16 -63 -12 -235
-70 -335 -112 -310 -129 -564 -299 -801 -536 -146 -146 -226 -244 -326 -396
-199 -303 -342 -680 -383 -1009 -4 -30 -9 -63 -12 -75 -12 -49 -10 -455 2
-546 7 -52 16 -117 20 -145 14 -101 84 -371 115 -440 5 -11 29 -69 55 -128 44
-103 57 -129 128 -257 161 -289 453 -608 722 -788 39 -26 72 -49 75 -52 3 -3
28 -19 55 -35 28 -16 64 -37 80 -47 52 -31 237 -119 313 -149 151 -60 408
-127 553 -144 25 -3 56 -8 70 -11 41 -10 420 -12 499 -4 173 19 216 26 349 56
359 82 755 281 1031 519 431 372 728 873 829 1398 37 193 48 303 48 492 1 141
-5 228 -21 357 -20 148 -102 456 -150 563 -8 17 -27 62 -44 100 -51 116 -110
223 -197 355 -317 478 -798 838 -1339 1000 -140 42 -292 76 -384 86 -32 3 -61
8 -66 11 -9 6 -451 14 -458 9z"/>
</g>
</svg>
