<?xml version="1.0" standalone="no"?>
<!DOCTYPE svg PUBLIC "-//W3C//DTD SVG 20010904//EN"
 "http://www.w3.org/TR/2001/REC-SVG-20010904/DTD/svg10.dtd">
<svg version="1.0" xmlns="http://www.w3.org/2000/svg"
 width="578.000000pt" height="578.000000pt" viewBox="0 0 578.000000 578.000000"
 preserveAspectRatio="xMidYMid meet">
<metadata>
Created by potrace 1.11, written by Peter Selinger 2001-2013
</metadata>
<g transform="translate(0.000000,578.000000) scale(0.100000,-0.100000)"
fill="#000000" stroke="none">
<path d="M2412 5564 c-30 -8 -63 -21 -75 -29 -12 -8 -27 -15 -34 -15 -25 0
-128 -74 -193 -139 -75 -75 -121 -142 -169 -251 -48 -110 -48 -110 -64 -170
-31 -112 -36 -136 -43 -185 -3 -27 -8 -59 -11 -70 -6 -28 -4 -211 3 -265 3
-25 6 -52 6 -60 1 -39 32 -154 64 -237 45 -119 118 -229 209 -320 107 -106
199 -146 332 -144 394 4 710 464 707 1031 -1 86 -12 218 -21 233 -2 4 -6 20
-9 35 -30 175 -183 427 -304 498 -16 10 -30 21 -30 24 0 10 -89 51 -140 65
-62 16 -162 16 -228 -1z"/>
<path d="M4150 4979 c-47 -11 -91 -20 -97 -21 -7 -1 -13 -5 -13 -10 0 -4 -7
-8 -15 -8 -14 0 -127 -55 -150 -73 -5 -4 -32 -24 -60 -44 -87 -64 -265 -254
-265 -282 0 -6 -4 -11 -9 -11 -5 0 -14 -13 -21 -30 -7 -16 -16 -30 -20 -30 -4
0 -10 -8 -14 -17 -3 -10 -10 -25 -15 -33 -6 -8 -28 -53 -50 -100 -76 -164
-110 -317 -106 -478 3 -122 8 -151 36 -241 44 -139 118 -241 231 -319 82 -57
121 -67 248 -65 64 1 120 8 170 23 41 12 81 22 88 22 6 1 12 5 12 10 0 4 3 7
8 6 16 -3 121 53 190 101 194 138 351 351 442 599 16 45 32 95 35 110 6 27 16
77 19 97 1 6 4 15 7 20 14 27 18 217 7 296 -10 69 -53 191 -89 251 -50 83
-136 161 -223 203 -69 33 -86 37 -169 39 -62 2 -119 -3 -177 -15z"/>
<path d="M969 4445 c-3 -2 -25 -5 -49 -6 -145 -7 -296 -97 -368 -219 -14 -25
-29 -47 -32 -50 -5 -5 -39 -75 -61 -125 -16 -37 -48 -135 -44 -135 3 0 0 -12
-6 -27 -11 -28 -21 -102 -23 -160 0 -18 -4 -33 -7 -33 -4 0 -4 -12 0 -27 4
-16 4 -40 0 -55 -4 -16 -4 -28 -1 -28 4 0 8 -21 9 -48 2 -61 9 -113 16 -132 4
-8 8 -28 10 -45 2 -16 6 -37 9 -45 3 -8 16 -44 28 -80 82 -242 298 -480 486
-536 60 -18 171 -25 189 -13 6 4 24 9 40 12 35 6 94 32 150 67 51 31 154 138
161 167 4 13 9 23 13 23 11 0 98 194 90 202 -1 2 3 13 9 24 6 12 14 34 17 50
2 16 7 40 10 54 23 105 24 320 2 416 -3 12 -8 38 -11 59 -17 105 -104 299
-181 404 -126 171 -250 258 -395 277 -25 3 -48 8 -51 10 -3 2 -8 2 -10 -1z"/>
<path d="M4818 3205 c-2 -2 -25 -6 -52 -9 -55 -8 -185 -51 -233 -78 -18 -9
-33 -15 -33 -12 0 2 -6 0 -12 -6 -17 -13 -119 -80 -123 -80 -11 0 -205 -186
-205 -196 0 -3 -10 -15 -21 -27 -84 -87 -213 -346 -234 -472 -11 -63 -13 -212
-4 -253 4 -20 10 -50 13 -67 11 -58 77 -176 130 -228 65 -65 132 -101 221
-120 84 -17 246 -14 323 7 28 8 52 12 52 9 0 -3 7 1 16 8 9 7 22 14 30 15 22
3 145 65 194 98 215 144 387 366 473 611 55 155 63 263 32 423 -2 9 -4 17 -5
17 -1 0 -3 9 -5 19 -9 49 -78 165 -126 213 -54 55 -148 108 -209 118 -38 7
-217 15 -222 10z"/>
<path d="M2367 2864 c-1 -1 -38 -5 -82 -8 -44 -3 -92 -8 -105 -11 -14 -3 -38
-8 -55 -10 -69 -13 -195 -50 -265 -80 -122 -51 -140 -59 -140 -67 0 -5 -9 -8
-20 -8 -11 0 -20 -4 -20 -10 0 -5 -6 -10 -14 -10 -8 0 -21 -6 -28 -12 -7 -7
-42 -33 -78 -57 -74 -51 -107 -76 -235 -178 -106 -84 -270 -243 -350 -338 -22
-26 -48 -57 -58 -68 -10 -12 -27 -36 -38 -54 -11 -18 -25 -33 -30 -33 -5 0 -9
-7 -9 -15 0 -8 -3 -15 -8 -15 -4 0 -27 -33 -52 -72 -24 -40 -62 -100 -84 -133
-22 -33 -40 -62 -39 -65 0 -3 -3 -16 -8 -29 -36 -92 -41 -227 -13 -326 10 -32
58 -139 69 -152 5 -6 28 -34 50 -61 81 -100 263 -177 441 -186 28 -2 55 -5 60
-8 8 -4 207 -2 479 5 66 1 124 1 129 -2 5 -2 38 -6 72 -7 64 -3 163 -21 269
-50 33 -8 68 -17 78 -19 28 -6 198 -99 259 -141 45 -32 213 -167 228 -184 3
-3 34 -30 70 -60 36 -30 70 -59 76 -65 57 -54 184 -150 184 -140 0 3 12 -2 28
-13 100 -69 329 -99 445 -59 111 39 206 113 238 185 8 18 18 32 22 32 5 0 6 4
3 9 -3 5 1 14 9 21 8 7 12 16 9 22 -3 5 -1 15 5 22 7 8 14 27 16 42 2 16 10
61 18 99 14 74 15 225 2 340 -5 39 -9 86 -11 105 -1 19 -3 35 -4 35 -1 0 -3
16 -6 35 -3 27 -65 282 -99 410 -3 8 -10 35 -16 60 -12 42 -87 261 -124 360
-28 75 -121 263 -171 346 -98 164 -237 326 -332 389 -23 15 -42 32 -42 37 0 5
-4 7 -9 3 -5 -3 -12 -1 -15 4 -16 25 -183 101 -306 139 -47 15 -193 38 -255
42 -86 4 -136 5 -138 4z"/>
</g>
</svg>
